<?xml version="1.0" standalone="no"?><!DOCTYPE svg PUBLIC "-//W3C//DTD SVG 1.1//EN" "http://www.w3.org/Graphics/SVG/1.1/DTD/svg11.dtd"><svg t="1595122602018" class="icon" viewBox="0 0 1024 1024" version="1.1" xmlns="http://www.w3.org/2000/svg" p-id="2649" xmlns:xlink="http://www.w3.org/1999/xlink" width="200" height="200"><defs><style type="text/css"></style></defs><path d="M902.91 491.611L724.385 313.086c-11.286-11.286-29.855-11.286-41.142 0s-11.286 29.855 0 41.142l128.159 128.159h-401.59c-16.02 0-29.127 13.107-29.127 29.127s13.107 29.127 29.127 29.127h402.925L683.243 670.135c-11.286 11.286-11.286 29.855 0 41.142s29.855 11.286 41.142 0L902.91 532.752c11.408-11.286 11.408-29.855 0-41.142z" p-id="2650"></path><path d="M641.858 765.406a29.057 29.057 0 0 0-29.127 29.127v32.039c0 21.36-17.476 38.836-38.836 38.836H208.956c-21.36 0-38.836-17.476-38.836-38.836V198.277c0-21.36 17.476-38.836 38.836-38.836h364.939c21.36 0 38.836 17.476 38.836 38.836v32.039c0 16.142 12.986 29.127 29.127 29.127s29.127-12.986 29.127-29.127v-32.039c0-53.521-43.569-97.09-97.09-97.09H208.956c-53.521 0-97.09 43.569-97.09 97.09v628.295c0 53.521 43.569 97.09 97.09 97.09h364.939c53.521 0 97.09-43.569 97.09-97.09v-32.039c0-16.02-13.107-29.127-29.127-29.127z" p-id="2651"></path></svg>