<?xml version="1.0" standalone="no"?>
<!DOCTYPE svg PUBLIC "-//W3C//DTD SVG 1.1//EN" "http://www.w3.org/Graphics/SVG/1.1/DTD/svg11.dtd">
<svg class="icon" width="200px" height="200.00px" viewBox="0 0 1024 1024" version="1.1" xmlns="http://www.w3.org/2000/svg">
  <path fill="currentColor" d="M832.398 230.025a0.876 0.876 0 0 0-0.416-0.105l-0.051 0.001c-21.022-1.165-348.591 376.245-383.596 424.997-33.114 51.627-14.577 94.501 25.709 122.309 15.431 9.734 32.079 15.82 48.598 16.752 26.772 1.501 53.231-10.538 73.711-42.434 33.114-51.651 251.633-509.012 236.046-521.518M563.497 383.583l6.24 0.932 12.609-14.239a7893.59 7893.59 0 0 1 62.448-69.698l12.506-13.774-17.89-5.178c-38.108-11.42-81.9-17.994-127.226-17.994h-0.194c-253.383 0-459.551 206.167-459.551 459.561 0.03 32.033 25.989 57.993 58.019 58.021 32.035-0.03 57.995-25.989 58.023-58.019 0-189.42 154.101-343.521 343.519-343.521 17.166 0.025 34.486 1.321 51.497 3.909m298.028 41.58l-11.909-13.956-7.508 16.752a6547.532 6547.532 0 0 1-37.618 82.358l-8.958 19.211 3.572 5.411c35.353 52.943 56.416 118.046 56.416 188.069v0.221c0.03 32.02 25.989 57.98 58.019 58.011 32.035-0.03 57.995-25.989 58.023-58.019 0-109.106-39.069-214.948-110.035-298.058z" />
</svg>